<svg width="42" height="53" viewBox="0 0 42 53" fill="none" xmlns="http://www.w3.org/2000/svg">
<path d="M21.0003 1.6875C16.9155 1.68658 12.9445 3.03306 9.70265 5.51825C6.46084 8.00344 4.1293 11.4886 3.06939 15.4334C2.00947 19.3783 2.28038 23.5626 3.84012 27.3379C5.39986 31.1132 8.16132 34.2686 11.6965 36.315C13.24 37.2105 14.2053 38.583 14.248 39.9667C14.2598 40.3374 14.3934 40.6938 14.628 40.9809C14.8627 41.2681 15.1854 41.4699 15.5463 41.5552C16.3383 41.742 17.1438 41.8882 17.9628 41.994C18.6895 42.0862 19.3128 41.5035 19.3128 40.77V30.2827C18.6018 30.2046 17.8973 30.076 17.2045 29.898C16.9899 29.8427 16.7882 29.7457 16.611 29.6126C16.4338 29.4794 16.2846 29.3126 16.1719 29.1217C16.0592 28.9309 15.9852 28.7197 15.9541 28.5002C15.923 28.2807 15.9354 28.0573 15.9906 27.8426C16.0459 27.628 16.1429 27.4263 16.2761 27.2491C16.4093 27.0719 16.5761 26.9227 16.7669 26.81C16.9578 26.6973 17.169 26.6233 17.3884 26.5922C17.6079 26.5611 17.8314 26.5735 18.046 26.6287C19.9839 27.1282 22.0167 27.1282 23.9545 26.6287C24.1713 26.5663 24.3985 26.5479 24.6225 26.5748C24.8466 26.6016 25.063 26.6731 25.2589 26.7851C25.4548 26.897 25.6263 27.0471 25.7632 27.2265C25.9001 27.4058 25.9996 27.6108 26.0559 27.8294C26.1122 28.0479 26.1241 28.2754 26.0909 28.4986C26.0577 28.7218 25.98 28.9361 25.8626 29.1287C25.7451 29.3214 25.5902 29.4886 25.407 29.6203C25.2238 29.752 25.016 29.8457 24.796 29.8957C24.1033 30.0745 23.3988 30.2038 22.6878 30.2827V40.7677C22.6878 41.5035 23.311 42.0862 24.0378 41.994C24.8568 41.8882 25.6623 41.742 26.4543 41.5552C26.8151 41.4699 27.1378 41.2681 27.3725 40.9809C27.6072 40.6938 27.7407 40.3374 27.7525 39.9667C27.7975 38.583 28.7605 37.2105 30.304 36.315C33.8392 34.2686 36.6007 31.1132 38.1604 27.3379C39.7202 23.5626 39.9911 19.3783 38.9312 15.4334C37.8712 11.4886 35.5397 8.00344 32.2979 5.51825C29.0561 3.03306 25.0851 1.68658 21.0003 1.6875Z" fill="#FFE06F" stroke="#FFA759" stroke-width="3"/>
<path fill-rule="evenodd" clip-rule="evenodd" d="M14.2793 44.7733C14.3206 44.5555 14.4045 44.348 14.526 44.1626C14.6475 43.9773 14.8044 43.8176 14.9877 43.6929C15.1709 43.5682 15.3769 43.4807 15.594 43.4357C15.811 43.3906 16.0348 43.3887 16.2526 43.4301C19.3896 44.0253 22.6105 44.0253 25.7476 43.4301C25.968 43.3816 26.1959 43.3777 26.4178 43.4189C26.6398 43.46 26.8512 43.5452 27.0396 43.6695C27.228 43.7938 27.3895 43.9546 27.5147 44.1424C27.6398 44.3302 27.726 44.5413 27.7682 44.763C27.8103 44.9847 27.8076 45.2127 27.7601 45.4333C27.7126 45.654 27.6213 45.8628 27.4916 46.0476C27.362 46.2323 27.1966 46.3892 27.0052 46.5088C26.8138 46.6285 26.6004 46.7086 26.3776 46.7443C22.8243 47.4186 19.1759 47.4186 15.6226 46.7443C15.1832 46.6609 14.7949 46.4064 14.543 46.0368C14.2912 45.6672 14.1963 45.2128 14.2793 44.7733ZM15.9466 50.2723C15.9696 50.0519 16.0358 49.8382 16.1415 49.6433C16.2471 49.4485 16.3901 49.2764 16.5622 49.1368C16.7344 48.9972 16.9324 48.893 17.1449 48.8299C17.3573 48.7668 17.5801 48.7463 17.8006 48.7693C19.9278 48.9916 22.0724 48.9916 24.1996 48.7693C24.6447 48.7228 25.0902 48.855 25.4378 49.1369C25.7855 49.4187 26.007 49.8272 26.0536 50.2723C26.1001 50.7175 25.9679 51.1629 25.686 51.5106C25.4042 51.8583 24.9957 52.0798 24.5506 52.1263C22.19 52.3735 19.8101 52.3735 17.4496 52.1263C17.2291 52.1033 17.0154 52.0371 16.8206 51.9314C16.6257 51.8258 16.4536 51.6828 16.314 51.5107C16.1745 51.3385 16.0702 51.1405 16.0071 50.928C15.9441 50.7156 15.9235 50.4928 15.9466 50.2723Z" fill="#41545B"/>
</svg>
