<svg width="25" height="33" viewBox="0 0 25 33" fill="none" xmlns="http://www.w3.org/2000/svg">
<path d="M12.034 3.0397e-07C9.38641 -0.000594627 6.81259 0.872125 4.71142 2.4829C2.61025 4.09367 1.09907 6.35254 0.412087 8.9094C-0.274894 11.4663 -0.0993057 14.1783 0.911636 16.6253C1.92258 19.0722 3.71242 21.1174 6.00375 22.4437C7.00417 23.0242 7.62979 23.9137 7.6575 24.8106C7.66515 25.0508 7.75171 25.2819 7.90381 25.468C8.0559 25.6541 8.26506 25.7849 8.49896 25.8402C9.01229 25.9612 9.53437 26.056 10.0652 26.1246C10.5362 26.1844 10.9402 25.8067 10.9402 25.3312V18.534C10.4794 18.4833 10.0228 18.4 9.57375 18.2846C9.43462 18.2488 9.3039 18.1859 9.18906 18.0996C9.07423 18.0132 8.97752 17.9051 8.90446 17.7814C8.8314 17.6577 8.78342 17.5208 8.76326 17.3786C8.74311 17.2364 8.75117 17.0915 8.78698 16.9524C8.82279 16.8133 8.88566 16.6825 8.97199 16.5677C9.05832 16.4529 9.16642 16.3562 9.29013 16.2831C9.41383 16.21 9.55071 16.1621 9.69296 16.1419C9.83521 16.1218 9.98003 16.1298 10.1192 16.1656C11.3752 16.4893 12.6927 16.4893 13.9487 16.1656C14.0893 16.1251 14.2365 16.1132 14.3817 16.1306C14.5269 16.148 14.6672 16.1944 14.7942 16.2669C14.9212 16.3395 15.0323 16.4368 15.121 16.553C15.2098 16.6693 15.2743 16.8022 15.3108 16.9438C15.3472 17.0854 15.3549 17.2329 15.3334 17.3776C15.3119 17.5222 15.2616 17.6611 15.1854 17.786C15.1093 17.9109 15.0089 18.0192 14.8902 18.1046C14.7714 18.19 14.6368 18.2507 14.4942 18.2831C14.0452 18.399 13.5886 18.4828 13.1277 18.534V25.3298C13.1277 25.8067 13.5317 26.1844 14.0027 26.1246C14.5335 26.056 15.0556 25.9612 15.569 25.8402C15.8029 25.7849 16.012 25.6541 16.1641 25.468C16.3162 25.2819 16.4028 25.0508 16.4104 24.8106C16.4396 23.9137 17.0637 23.0242 18.0642 22.4437C20.3555 21.1174 22.1453 19.0722 23.1563 16.6253C24.1672 14.1783 24.3428 11.4663 23.6558 8.9094C22.9688 6.35254 21.4577 4.09367 19.3565 2.4829C17.2553 0.872125 14.6815 -0.000594627 12.034 3.0397e-07Z" fill="#85979E"/>
<path fill-rule="evenodd" clip-rule="evenodd" d="M7.67916 27.9275C7.70594 27.7863 7.76027 27.6518 7.83904 27.5316C7.91782 27.4115 8.01949 27.308 8.13826 27.2272C8.25703 27.1463 8.39057 27.0897 8.53124 27.0604C8.67192 27.0312 8.81697 27.03 8.95812 27.0568C10.9914 27.4426 13.079 27.4426 15.1123 27.0568C15.2551 27.0254 15.4029 27.0229 15.5467 27.0496C15.6906 27.0762 15.8276 27.1314 15.9497 27.212C16.0718 27.2926 16.1765 27.3968 16.2576 27.5185C16.3388 27.6403 16.3946 27.777 16.4219 27.9207C16.4493 28.0645 16.4475 28.2122 16.4167 28.3552C16.3859 28.4982 16.3267 28.6336 16.2427 28.7533C16.1586 28.8731 16.0514 28.9747 15.9274 29.0523C15.8034 29.1299 15.6651 29.1818 15.5206 29.205C13.2176 29.642 10.8528 29.642 8.54978 29.205C8.265 29.1509 8.01334 28.9859 7.85009 28.7464C7.68685 28.5068 7.62537 28.2123 7.67916 27.9275ZM8.75978 31.4916C8.77471 31.3487 8.81763 31.2102 8.8861 31.0839C8.95457 30.9577 9.04725 30.8461 9.15884 30.7556C9.27042 30.6652 9.39874 30.5976 9.53645 30.5567C9.67417 30.5158 9.81858 30.5025 9.96145 30.5175C11.3402 30.6615 12.7302 30.6615 14.1089 30.5175C14.3975 30.4873 14.6862 30.573 14.9115 30.7557C15.1369 30.9384 15.2804 31.2031 15.3106 31.4916C15.3408 31.7802 15.2551 32.0689 15.0724 32.2942C14.8897 32.5196 14.625 32.6631 14.3364 32.6933C12.8065 32.8535 11.2639 32.8535 9.73395 32.6933C9.59108 32.6784 9.45255 32.6354 9.32626 32.567C9.19998 32.4985 9.08842 32.4058 8.99796 32.2942C8.9075 32.1826 8.83991 32.0543 8.79904 31.9166C8.75817 31.7789 8.74483 31.6345 8.75978 31.4916Z" fill="#41545B"/>
</svg>
