<svg width="60" height="60" viewBox="0 0 60 60" fill="none" xmlns="http://www.w3.org/2000/svg">
<g filter="url(#filter0_d_4107_931)">
<circle cx="30" cy="25" r="25" fill="#011662"/>
</g>
<g filter="url(#filter1_i_4107_931)">
<path d="M24 39.0746C24 38.3573 24.2553 37.6634 24.7202 37.1171L33.1735 27.1847C34.3181 25.8399 34.3181 23.8634 33.1735 22.5185L24.7202 12.5861C24.2553 12.0399 24 11.346 24 10.6286V10.6286C24 7.89185 27.3486 6.56613 29.222 8.56123L42.2048 22.3875C43.5055 23.7728 43.5055 25.9305 42.2048 27.3157L29.222 41.142C27.3486 43.1371 24 41.8114 24 39.0746V39.0746Z" fill="#5473B8"/>
</g>
<defs>
<filter id="filter0_d_4107_931" x="0" y="0" width="60" height="60" filterUnits="userSpaceOnUse" color-interpolation-filters="sRGB">
<feFlood flood-opacity="0" result="BackgroundImageFix"/>
<feColorMatrix in="SourceAlpha" type="matrix" values="0 0 0 0 0 0 0 0 0 0 0 0 0 0 0 0 0 0 127 0" result="hardAlpha"/>
<feOffset dy="5"/>
<feGaussianBlur stdDeviation="2.5"/>
<feComposite in2="hardAlpha" operator="out"/>
<feColorMatrix type="matrix" values="0 0 0 0 0.00392157 0 0 0 0 0.0862745 0 0 0 0 0.384314 0 0 0 0.1 0"/>
<feBlend mode="normal" in2="BackgroundImageFix" result="effect1_dropShadow_4107_931"/>
<feBlend mode="normal" in="SourceGraphic" in2="effect1_dropShadow_4107_931" result="shape"/>
</filter>
<filter id="filter1_i_4107_931" x="24" y="7.60229" width="19.1804" height="38.4987" filterUnits="userSpaceOnUse" color-interpolation-filters="sRGB">
<feFlood flood-opacity="0" result="BackgroundImageFix"/>
<feBlend mode="normal" in="SourceGraphic" in2="BackgroundImageFix" result="shape"/>
<feColorMatrix in="SourceAlpha" type="matrix" values="0 0 0 0 0 0 0 0 0 0 0 0 0 0 0 0 0 0 127 0" result="hardAlpha"/>
<feOffset dy="4"/>
<feGaussianBlur stdDeviation="2"/>
<feComposite in2="hardAlpha" operator="arithmetic" k2="-1" k3="1"/>
<feColorMatrix type="matrix" values="0 0 0 0 0 0 0 0 0 0 0 0 0 0 0 0 0 0 0.25 0"/>
<feBlend mode="normal" in2="shape" result="effect1_innerShadow_4107_931"/>
</filter>
</defs>
</svg>
