<svg width="27" height="27" viewBox="0 0 27 27" fill="none" xmlns="http://www.w3.org/2000/svg">
<path d="M11.8676 1.30597C12.6647 0.180045 14.3354 0.180047 15.1324 1.30597L18.6663 6.29804C18.92 6.65651 19.2847 6.92149 19.7041 7.05206L25.5438 8.87033C26.8609 9.28043 27.3772 10.8694 26.5527 11.9753L22.897 16.8789C22.6345 17.231 22.4952 17.6597 22.5006 18.0989L22.5759 24.2147C22.5929 25.5941 21.2412 26.5761 19.9346 26.1337L14.1414 24.1722C13.7254 24.0313 13.2746 24.0313 12.8586 24.1722L7.06537 26.1337C5.75875 26.5761 4.40713 25.5941 4.42412 24.2147L4.49942 18.0989C4.50483 17.6597 4.36552 17.231 4.10301 16.8789L0.447294 11.9753C-0.377223 10.8694 0.139053 9.28043 1.45617 8.87033L7.29593 7.05206C7.71528 6.92149 8.07998 6.65651 8.33375 6.29804L11.8676 1.30597Z" fill="#F2C937"/>
</svg>
