<svg width="31" height="30" viewBox="0 0 31 30" fill="none" xmlns="http://www.w3.org/2000/svg">
<g filter="url(#filter0_d_7280_5574)">
<circle cx="15.5" cy="12.5" r="12.5" transform="rotate(-90 15.5 12.5)" fill="#234695"/>
</g>
<g filter="url(#filter1_i_7280_5574)">
<path fill-rule="evenodd" clip-rule="evenodd" d="M21.5592 13.6412C21.8323 13.8737 22.1792 14.0013 22.5379 14.0013C23.9063 14.0013 24.5692 12.3271 23.5716 11.3904L16.6585 4.89895C15.9658 4.24858 14.887 4.24859 14.1944 4.89895L7.28121 11.3904C6.28366 12.3271 6.94652 14.0013 8.31491 14.0013C8.67358 14.0013 9.02053 13.8737 9.29366 13.6412L13.5002 10.0611L13.5002 20C13.5002 21.1046 14.3957 22 15.5002 22C16.6048 22 17.5002 21.1046 17.5002 20L17.5002 10.1867L21.5592 13.6412Z" fill="#A2DB34"/>
</g>
<defs>
<filter id="filter0_d_7280_5574" x="0.5" y="0" width="30" height="30" filterUnits="userSpaceOnUse" color-interpolation-filters="sRGB">
<feFlood flood-opacity="0" result="BackgroundImageFix"/>
<feColorMatrix in="SourceAlpha" type="matrix" values="0 0 0 0 0 0 0 0 0 0 0 0 0 0 0 0 0 0 127 0" result="hardAlpha"/>
<feOffset dy="2.5"/>
<feGaussianBlur stdDeviation="1.25"/>
<feComposite in2="hardAlpha" operator="out"/>
<feColorMatrix type="matrix" values="0 0 0 0 0.00392157 0 0 0 0 0.0862745 0 0 0 0 0.384314 0 0 0 0.1 0"/>
<feBlend mode="normal" in2="BackgroundImageFix" result="effect1_dropShadow_7280_5574"/>
<feBlend mode="normal" in="SourceGraphic" in2="effect1_dropShadow_7280_5574" result="shape"/>
</filter>
<filter id="filter1_i_7280_5574" x="6.80176" y="4.41016" width="17.249" height="19.5898" filterUnits="userSpaceOnUse" color-interpolation-filters="sRGB">
<feFlood flood-opacity="0" result="BackgroundImageFix"/>
<feBlend mode="normal" in="SourceGraphic" in2="BackgroundImageFix" result="shape"/>
<feColorMatrix in="SourceAlpha" type="matrix" values="0 0 0 0 0 0 0 0 0 0 0 0 0 0 0 0 0 0 127 0" result="hardAlpha"/>
<feOffset dy="2"/>
<feGaussianBlur stdDeviation="1"/>
<feComposite in2="hardAlpha" operator="arithmetic" k2="-1" k3="1"/>
<feColorMatrix type="matrix" values="0 0 0 0 0 0 0 0 0 0 0 0 0 0 0 0 0 0 0.25 0"/>
<feBlend mode="normal" in2="shape" result="effect1_innerShadow_7280_5574"/>
</filter>
</defs>
</svg>
