<svg width="101" height="101" viewBox="0 0 101 101" fill="none" xmlns="http://www.w3.org/2000/svg">
<rect x="0.242188" y="0.930298" width="100" height="100" rx="7.00025" fill="#FFBF7A"/>
<path d="M37.7454 18.7512C37.7454 23.9724 30.9073 27.599 25.6021 27.599C20.2969 27.599 14.5889 21.9726 14.5889 16.7514C14.5889 11.5302 20.2969 8.69141 25.6021 8.69141C30.9073 8.69141 37.7454 13.53 37.7454 18.7512Z" fill="#FF9C7D"/>
<path d="M79.5293 85.6514C77.754 82.8071 80.246 78.5065 83.1361 76.7026C86.0261 74.8988 91.0486 76.023 92.8239 78.8672C94.5992 81.7115 92.455 85.1988 89.565 87.0026C86.6749 88.8065 81.3046 88.4957 79.5293 85.6514Z" fill="#FF9C7D"/>
<path d="M61.6456 36.8405C61.6456 42.0617 56.8257 47.6881 51.5205 47.6881C46.2153 47.6881 40.5073 42.0617 40.5073 36.8405C40.5073 31.6193 46.2153 28.7805 51.5205 28.7805C56.8257 28.7805 61.6456 31.6193 61.6456 36.8405Z" fill="#FF9C7D"/>
<path d="M96.6988 13.7773C96.6988 18.9984 91.8789 24.6249 86.5737 24.6249C81.2685 24.6249 75.5605 18.9984 75.5605 13.7773C75.5605 8.55607 81.2685 5.71729 86.5737 5.71729C91.8789 5.71729 96.6988 8.55606 96.6988 13.7773Z" fill="#FF9C7D"/>
<path d="M35.3684 70.2344C31.9645 72.1996 26.504 71.2131 24.5312 67.7961C22.5584 64.3791 24.104 58.5849 27.508 56.6196C30.9119 54.6543 34.8853 57.2622 36.8581 60.6792C38.8308 64.0962 38.7724 68.2691 35.3684 70.2344Z" fill="#E46E86"/>
<path d="M53.2618 73.6119C50.4972 69.1827 51.6069 61.8576 56.1074 59.0486C60.6078 56.2395 68.4292 57.9902 71.1938 62.4194C73.9583 66.8487 70.6192 72.2792 66.1188 75.0882C61.6183 77.8973 56.0264 78.0412 53.2618 73.6119Z" fill="#FF9C7D"/>
<path d="M8.51131 78.5943C10.345 75.1497 15.5009 73.1306 19.0008 74.9939C22.5008 76.8571 24.2904 82.5737 22.4567 86.0182C20.623 89.4628 15.8603 89.3309 12.3603 87.4676C8.86037 85.6044 6.67758 82.0388 8.51131 78.5943Z" fill="#FF9C7D"/>
<path d="M11.6691 48.8472C8.08103 49.4856 3.62511 46.8612 2.97645 43.2154C2.32779 39.5695 5.49647 34.959 9.08457 34.3206C12.6727 33.6822 15.3214 37.2577 15.9701 40.9036C16.6188 44.5494 15.2572 48.2088 11.6691 48.8472Z" fill="#FF9C7D"/>
<path d="M78.2537 36.9203C80.9595 34.4789 86.1291 34.3458 88.6098 37.0952C91.0905 39.8445 90.8437 45.4336 88.1379 47.875C85.4321 50.3164 81.2919 48.6857 78.8112 45.9363C76.3305 43.187 75.5479 39.3617 78.2537 36.9203Z" fill="#E46E86"/>
<path d="M57.4619 11.8282C59.3618 10.1139 62.9917 10.0205 64.7335 11.951C66.4753 13.8814 66.3021 17.8058 64.4021 19.5201C62.5022 21.2343 59.5951 20.0893 57.8533 18.1588C56.1115 16.2284 55.562 13.5424 57.4619 11.8282Z" fill="#E46E86"/>
<path d="M71.2139 93.5018C69.8427 94.8729 67.0993 95.0847 65.7061 93.6915C64.3129 92.2983 64.2915 89.3217 65.6626 87.9505C67.0338 86.5794 69.2783 87.3329 70.6715 88.7261C72.0647 90.1193 72.585 92.1306 71.2139 93.5018Z" fill="#E46E86"/>
<path d="M41.5997 81.0588C44.1911 81.8978 46.209 85.1941 45.3565 87.8272C44.504 90.4603 40.7943 92.3891 38.2029 91.5501C35.6116 90.7111 35.1199 87.4219 35.9724 84.7889C36.8249 82.1558 39.0084 80.2198 41.5997 81.0588Z" fill="#FF9C7D"/>
</svg>
