<svg width="101" height="100" viewBox="0 0 101 100" fill="none" xmlns="http://www.w3.org/2000/svg">
<rect x="0.758301" width="100" height="100" rx="7.00025" fill="#FB764D"/>
<path d="M91.1402 11.6034C90.6413 9.60637 88.1676 8.89834 86.6876 10.3289L79.7223 17.0617C78.2423 18.4923 78.8659 20.9886 80.8449 21.555L90.1583 24.2208C92.1372 24.7872 93.9872 22.999 93.4883 21.002L91.1402 11.6034Z" fill="#BC477B"/>
<path d="M17.0571 22.8541C15.5771 24.2847 13.1035 23.5767 12.6045 21.5797L10.2564 12.1811C9.7575 10.1841 11.6075 8.39583 13.5864 8.96226L22.8999 11.628C24.8788 12.1945 25.5025 14.6907 24.0225 16.1213L17.0571 22.8541Z" fill="#BC477B"/>
<path d="M65.9035 18.2751C67.3835 16.8445 66.7598 14.3482 64.7809 13.7818L55.4674 11.116C53.4885 10.5496 51.6385 12.3378 52.1374 14.3348L54.4855 23.7334C54.9845 25.7304 57.4581 26.4385 58.9381 25.0079L65.9035 18.2751Z" fill="#BC477B"/>
<path d="M33.9592 40.0167C35.4147 41.4722 37.9 40.8063 38.4327 38.818L40.94 29.4607C41.4728 27.4724 39.6534 25.653 37.6652 26.1858L28.3078 28.6931C26.3195 29.2258 25.6536 31.7112 27.1091 33.1667L33.9592 40.0167Z" fill="#BC477B"/>
<path d="M29.7264 67.44C29.7264 69.4983 31.9546 70.7848 33.7373 69.7556L42.1269 64.9119C43.9095 63.8827 43.9095 61.3097 42.1269 60.2805L33.7373 55.4368C31.9546 54.4076 29.7264 55.6941 29.7264 57.7525V67.44Z" fill="#BC477B"/>
<path d="M83.2049 47.6453C83.7376 45.657 86.223 44.9911 87.6785 46.4466L94.5285 53.2966C95.984 54.7521 95.3181 57.2375 93.3298 57.7702L83.9725 60.2775C81.9842 60.8103 80.1648 58.9909 80.6976 57.0026L83.2049 47.6453Z" fill="#BC477B"/>
<path d="M21.615 77.2562C23.3976 78.2854 23.3976 80.8584 21.615 81.8876L13.2254 86.7313C11.4428 87.7605 9.21453 86.474 9.21453 84.4156V74.7282C9.21453 72.6698 11.4428 71.3833 13.2254 72.4125L21.615 77.2562Z" fill="#BC477B"/>
<path d="M69.2402 72.9016C71.2983 72.9365 72.6224 70.7304 71.6236 68.9306L66.923 60.46C65.9242 58.6602 63.3516 58.6165 62.2923 60.3814L57.3068 68.6875C56.2475 70.4524 57.496 72.7022 59.5541 72.7371L69.2402 72.9016Z" fill="#BC477B"/>
<path d="M51.9955 38.9784C51.4966 36.9814 53.3466 35.1932 55.3255 35.7596L64.639 38.4254C66.6179 38.9918 67.2416 41.4881 65.7616 42.9187L58.7962 49.6515C57.3162 51.0821 54.8426 50.3741 54.3436 48.3771L51.9955 38.9784Z" fill="#BC477B"/>
<path d="M7.79523 47.609C5.9954 48.6078 5.95172 51.1804 7.71661 52.2398L16.0228 57.2252C17.7877 58.2845 20.0375 57.036 20.0724 54.9779L20.2368 45.2919C20.2718 43.2338 18.0657 41.9096 16.2658 42.9084L7.79523 47.609Z" fill="#BC477B"/>
<path d="M42.9405 81.175C43.9998 79.4101 46.5724 79.4538 47.5712 81.2536L52.2718 89.7242C53.2706 91.524 51.9465 93.7301 49.8884 93.6952L40.2023 93.5308C38.1442 93.4958 36.8957 91.246 37.9551 89.4811L42.9405 81.175Z" fill="#BC477B"/>
<path d="M88.3784 80.4356C87.8795 78.4386 85.4059 77.7305 83.9259 79.1611L76.9605 85.8939C75.4805 87.3245 76.1042 89.8208 78.0831 90.3872L87.3965 93.053C89.3755 93.6194 91.2255 91.8312 90.7265 89.8342L88.3784 80.4356Z" fill="#BC477B"/>
</svg>
