<svg width="100" height="101" viewBox="0 0 100 101" fill="none" xmlns="http://www.w3.org/2000/svg">
<rect y="0.234985" width="100" height="100" rx="7.00025" fill="#63C8B4"/>
<path d="M5.82471 14.24C5.82471 12.2294 7.4546 10.5995 9.46518 10.5995C11.4758 10.5995 13.1056 12.2294 13.1056 14.24V23.7052C13.1056 25.7158 11.4758 27.3456 9.46518 27.3456C7.4546 27.3456 5.82471 25.7158 5.82471 23.7052V14.24Z" fill="#FFE06F"/>
<path d="M5.82471 57.9256C5.82471 55.915 7.4546 54.2851 9.46518 54.2851C11.4758 54.2851 13.1056 55.915 13.1056 57.9256V67.3908C13.1056 69.4014 11.4758 71.0313 9.46518 71.0313C7.4546 71.0313 5.82471 69.4014 5.82471 67.3908V57.9256Z" fill="#FFE06F"/>
<path d="M28.3956 13.8759C28.3956 12.0664 29.8625 10.5995 31.672 10.5995C33.4816 10.5995 34.9485 12.0664 34.9485 13.8759V24.0692C34.9485 25.8787 33.4816 27.3456 31.672 27.3456C29.8625 27.3456 28.3956 25.8787 28.3956 24.0692V13.8759Z" fill="#FFE06F"/>
<path d="M28.3956 57.5615C28.3956 55.752 29.8625 54.2851 31.672 54.2851C33.4816 54.2851 34.9485 55.752 34.9485 57.5615V67.7549C34.9485 69.5644 33.4816 71.0313 31.672 71.0313C29.8625 71.0313 28.3956 69.5644 28.3956 67.7549V57.5615Z" fill="#FFE06F"/>
<path d="M16.7461 36.0828C16.7461 34.0722 18.376 32.4423 20.3866 32.4423C22.3972 32.4423 24.0271 34.0722 24.0271 36.0828V45.548C24.0271 47.5586 22.3972 49.1885 20.3866 49.1885C18.376 49.1885 16.7461 47.5586 16.7461 45.548V36.0828Z" fill="#FFE06F"/>
<path d="M16.7461 79.7684C16.7461 77.7578 18.376 76.1279 20.3866 76.1279C22.3972 76.1279 24.0271 77.7578 24.0271 79.7684V89.2336C24.0271 91.2442 22.3972 92.8741 20.3866 92.8741C18.376 92.8741 16.7461 91.2442 16.7461 89.2336V79.7684Z" fill="#FFE06F"/>
<path d="M50.2384 14.24C50.2384 12.2294 51.8683 10.5995 53.8789 10.5995C55.8895 10.5995 57.5194 12.2294 57.5194 14.24V23.7052C57.5194 25.7158 55.8895 27.3456 53.8789 27.3456C51.8683 27.3456 50.2384 25.7158 50.2384 23.7052V14.24Z" fill="#FFE06F"/>
<path d="M50.2384 57.9256C50.2384 55.915 51.8683 54.2851 53.8789 54.2851C55.8895 54.2851 57.5194 55.915 57.5194 57.9256V67.3908C57.5194 69.4014 55.8895 71.0313 53.8789 71.0313C51.8683 71.0313 50.2384 69.4014 50.2384 67.3908V57.9256Z" fill="#FFE06F"/>
<path d="M72.8093 14.24C72.8093 12.2294 74.4392 10.5995 76.4498 10.5995C78.4604 10.5995 80.0903 12.2294 80.0903 14.24V23.7052C80.0903 25.7158 78.4604 27.3456 76.4498 27.3456C74.4392 27.3456 72.8093 25.7158 72.8093 23.7052V14.24Z" fill="#FFE06F"/>
<path d="M72.8093 57.9256C72.8093 55.915 74.4392 54.2851 76.4498 54.2851C78.4604 54.2851 80.0903 55.915 80.0903 57.9256V67.3908C80.0903 69.4014 78.4604 71.0313 76.4498 71.0313C74.4392 71.0313 72.8093 69.4014 72.8093 67.3908V57.9256Z" fill="#FFE06F"/>
<path d="M61.1598 36.0828C61.1598 34.0722 62.7897 32.4423 64.8003 32.4423C66.8109 32.4423 68.4408 34.0722 68.4408 36.0828V45.548C68.4408 47.5586 66.8109 49.1885 64.8003 49.1885C62.7897 49.1885 61.1598 47.5586 61.1598 45.548V36.0828Z" fill="#FFE06F"/>
<path d="M85.915 36.0828C85.915 34.0722 87.5449 32.4423 89.5555 32.4423C91.5661 32.4423 93.196 34.0722 93.196 36.0828V45.548C93.196 47.5586 91.5661 49.1885 89.5555 49.1885C87.5449 49.1885 85.915 47.5586 85.915 45.548V36.0828Z" fill="#FFE06F"/>
<path d="M61.1598 79.7684C61.1598 77.7578 62.7897 76.1279 64.8003 76.1279C66.8109 76.1279 68.4408 77.7578 68.4408 79.7684V89.2336C68.4408 91.2442 66.8109 92.8741 64.8003 92.8741C62.7897 92.8741 61.1598 91.2442 61.1598 89.2336V79.7684Z" fill="#FFE06F"/>
<path d="M85.915 79.7684C85.915 77.7578 87.5449 76.1279 89.5555 76.1279C91.5661 76.1279 93.196 77.7578 93.196 79.7684V89.2336C93.196 91.2442 91.5661 92.8741 89.5555 92.8741C87.5449 92.8741 85.915 91.2442 85.915 89.2336V79.7684Z" fill="#FFE06F"/>
<path d="M39.317 35.7187C39.317 33.9092 40.7839 32.4423 42.5934 32.4423C44.403 32.4423 45.8699 33.9092 45.8699 35.7187V45.912C45.8699 47.7216 44.403 49.1885 42.5934 49.1885C40.7839 49.1885 39.317 47.7216 39.317 45.912V35.7187Z" fill="#FFE06F"/>
<path d="M39.317 79.4044C39.317 77.5948 40.7839 76.1279 42.5934 76.1279C44.403 76.1279 45.8699 77.5948 45.8699 79.4044V89.5977C45.8699 91.4072 44.403 92.8741 42.5934 92.8741C40.7839 92.8741 39.317 91.4072 39.317 89.5977V79.4044Z" fill="#FFE06F"/>
</svg>
