<svg width="101" height="101" viewBox="0 0 101 101" fill="none" xmlns="http://www.w3.org/2000/svg">
<rect x="0.531738" y="0.740234" width="99.9039" height="100" rx="7.00025" fill="#D59CDF"/>
<path d="M0.435547 15.2888C0.435547 13.6937 1.39229 12.2543 2.86294 11.6367L6.80884 9.97976C9.38425 8.89829 12.2864 8.89829 14.8619 9.97976L16.0588 10.4824C19.3697 11.8727 23.1242 11.8628 26.4351 10.4725V10.4725C29.7459 9.08219 33.524 9.08219 36.8349 10.4725V10.4725C40.1457 11.8628 43.9238 11.8628 47.2347 10.4725V10.4725C50.5455 9.08219 54.3236 9.08219 57.6345 10.4725V10.4725C60.9453 11.8628 64.6998 11.8727 68.0107 10.4824L69.2077 9.97976C71.7831 8.89829 74.6853 8.89829 77.2607 9.97976L81.2066 11.6367C82.6772 12.2543 83.634 13.6937 83.634 15.2888V15.2888C83.634 18.1199 80.7498 20.037 78.1394 18.9408L75.5035 17.8339C74.052 17.2244 72.4163 17.2244 70.9649 17.8339L68.0107 19.0744C64.6998 20.4647 60.9453 20.4548 57.6345 19.0645V19.0645C54.3236 17.6742 50.5455 17.6742 47.2347 19.0645V19.0645C43.9238 20.4548 40.1457 20.4548 36.8349 19.0645V19.0645C33.524 17.6742 29.7459 17.6742 26.4351 19.0645V19.0645C23.1242 20.4548 19.3697 20.4647 16.0588 19.0744L13.1046 17.8339C11.6532 17.2244 10.0175 17.2244 8.56605 17.8339L5.93008 18.9408C3.31973 20.037 0.435547 18.1199 0.435547 15.2888V15.2888Z" fill="#ECCDF1"/>
<path d="M11.897 33.4325C11.897 31.792 12.8997 30.3181 14.4257 29.7157L18.898 27.9503C21.508 26.92 24.4121 26.92 27.0221 27.9503L29.1141 28.7761C32.2683 30.0212 35.7778 30.0212 38.9321 28.7761L40.1771 28.2846C43.3314 27.0395 46.8409 27.0395 49.9951 28.2846L51.2402 28.7761C54.3944 30.0212 57.904 30.0212 61.0582 28.7761L62.3033 28.2846C65.4575 27.0395 68.967 27.0395 72.1212 28.2846L73.3663 28.7761C76.5205 30.0212 80.0301 30.0212 83.1843 28.7761L85.2763 27.9503C87.8863 26.92 90.7904 26.92 93.4004 27.9503L97.8727 29.7157C99.3987 30.3181 100.401 31.792 100.401 33.4325V33.4325C100.401 36.2518 97.5606 38.1845 94.9383 37.1494L91.6805 35.8634C90.1756 35.2693 88.5011 35.2693 86.9962 35.8634L83.1843 37.3681C80.0301 38.6133 76.5205 38.6133 73.3663 37.3681L72.1212 36.8766C68.967 35.6315 65.4575 35.6315 62.3033 36.8767L61.0582 37.3681C57.904 38.6133 54.3944 38.6133 51.2402 37.3681L49.9951 36.8766C46.8409 35.6315 43.3314 35.6315 40.1771 36.8767L38.9321 37.3681C35.7778 38.6133 32.2683 38.6133 29.1141 37.3681L25.3022 35.8634C23.7972 35.2693 22.1228 35.2693 20.6179 35.8634L17.3601 37.1494C14.7378 38.1845 11.897 36.2518 11.897 33.4325V33.4325Z" fill="#B458C4"/>
<path d="M0.435547 51.3126C0.435547 49.7316 1.3888 48.3065 2.85013 47.7029L6.86516 46.0445C9.40778 44.9943 12.2629 44.9943 14.8055 46.0445L16.1312 46.5921C19.3999 47.9422 23.0704 47.9422 26.3391 46.5921L26.531 46.5128C29.7997 45.1627 33.4702 45.1627 36.7389 46.5128L36.9308 46.5921C40.1995 47.9422 43.87 47.9422 47.1387 46.5921L47.3306 46.5128C50.5993 45.1627 54.2698 45.1627 57.5385 46.5128L57.7304 46.5921C60.9991 47.9422 64.6696 47.9422 67.9383 46.5921L69.264 46.0445C71.8066 44.9943 74.6617 44.9943 77.2044 46.0445L81.2194 47.7029C82.6807 48.3064 83.634 49.7316 83.634 51.3126V51.3126C83.634 54.0944 80.8085 55.9843 78.2374 54.9224L75.4855 53.7857C74.0437 53.1902 72.4247 53.1902 70.9829 53.7857L67.9383 55.0432C64.6696 56.3933 60.9991 56.3933 57.7304 55.0432L57.5385 54.964C54.2698 53.6139 50.5993 53.6139 47.3306 54.964L47.1387 55.0432C43.87 56.3933 40.1995 56.3933 36.9308 55.0432L36.7389 54.964C33.4702 53.6139 29.7997 53.6139 26.531 54.964L26.3391 55.0432C23.0704 56.3933 19.3999 56.3933 16.1312 55.0432L13.0866 53.7857C11.6449 53.1902 10.0258 53.1902 8.58405 53.7857L5.83208 54.9224C3.26102 55.9843 0.435547 54.0944 0.435547 51.3126V51.3126Z" fill="#ECCDF1"/>
<path d="M11.897 69.4541C11.897 67.8288 12.8952 66.3703 14.4103 65.7821L18.9558 64.0172C21.5316 63.017 24.3885 63.017 26.9643 64.0172L29.1839 64.879C32.2968 66.0877 35.7493 66.0877 38.8622 64.879L40.247 64.3413C43.3599 63.1327 46.8124 63.1327 49.9253 64.3413L51.3101 64.879C54.4229 66.0877 57.8754 66.0877 60.9883 64.879L62.3731 64.3413C65.486 63.1327 68.9385 63.1327 72.0514 64.3413L73.4362 64.879C76.5491 66.0877 80.0016 66.0877 83.1144 64.879L85.3341 64.0172C87.9099 63.017 90.7668 63.017 93.3426 64.0172L97.8881 65.7821C99.4032 66.3703 100.401 67.8288 100.401 69.4541V69.4541C100.401 72.2238 97.6185 74.1286 95.0366 73.1261L91.6612 71.8155C90.167 71.2353 88.5098 71.2353 87.0156 71.8155L83.1145 73.3302C80.0016 74.5388 76.5491 74.5388 73.4362 73.3302L72.0514 72.7925C68.9385 71.5838 65.486 71.5838 62.3731 72.7925L60.9883 73.3302C57.8755 74.5388 54.4229 74.5388 51.3101 73.3302L49.9253 72.7925C46.8124 71.5838 43.3599 71.5838 40.247 72.7925L38.8622 73.3302C35.7493 74.5388 32.2968 74.5388 29.1839 73.3302L25.2828 71.8155C23.7886 71.2353 22.1314 71.2353 20.6372 71.8155L17.2618 73.1261C14.6799 74.1286 11.897 72.2238 11.897 69.4541V69.4541Z" fill="#B458C4"/>
<path d="M0.435547 87.3077C0.435547 85.7126 1.39229 84.2732 2.86294 83.6557L6.80884 81.9987C9.38425 80.9172 12.2864 80.9172 14.8619 81.9987L16.0588 82.5013C19.3697 83.8916 23.1242 83.8817 26.4351 82.4914V82.4914C29.7459 81.1011 33.524 81.1011 36.8349 82.4914V82.4914C40.1457 83.8817 43.9238 83.8817 47.2347 82.4914V82.4914C50.5455 81.1011 54.3236 81.1011 57.6345 82.4914V82.4914C60.9453 83.8817 64.6998 83.8916 68.0107 82.5013L69.2077 81.9987C71.7831 80.9172 74.6853 80.9172 77.2607 81.9987L81.2066 83.6557C82.6772 84.2732 83.634 85.7126 83.634 87.3077V87.3077C83.634 90.1389 80.7498 92.0559 78.1394 90.9597L75.5035 89.8528C74.052 89.2433 72.4163 89.2433 70.9649 89.8528L68.0107 91.0933C64.6998 92.4836 60.9453 92.4738 57.6345 91.0835V91.0835C54.3236 89.6931 50.5455 89.6931 47.2347 91.0835V91.0835C43.9238 92.4738 40.1457 92.4738 36.8349 91.0835V91.0835C33.524 89.6931 29.7459 89.6931 26.4351 91.0835V91.0835C23.1242 92.4738 19.3697 92.4837 16.0588 91.0933L13.1046 89.8528C11.6532 89.2433 10.0175 89.2433 8.56605 89.8528L5.93008 90.9597C3.31973 92.0559 0.435547 90.1389 0.435547 87.3077V87.3077Z" fill="#ECCDF1"/>
</svg>
