<svg width="101" height="100" viewBox="0 0 101 100" fill="none" xmlns="http://www.w3.org/2000/svg">
<rect x="0.242188" width="100" height="100" rx="7.00025" fill="#BC477B"/>
<path d="M90.6236 11.6034C90.1247 9.60637 87.651 8.89834 86.171 10.3289L79.2057 17.0617C77.7257 18.4923 78.3493 20.9886 80.3283 21.555L89.6417 24.2208C91.6206 24.7872 93.4706 22.999 92.9717 21.002L90.6236 11.6034Z" fill="#FFA0B9"/>
<path d="M16.5405 22.8541C15.0605 24.2847 12.5869 23.5767 12.0879 21.5797L9.73982 12.1811C9.2409 10.1841 11.0909 8.39583 13.0698 8.96226L22.3833 11.628C24.3622 12.1945 24.9859 14.6907 23.5059 16.1213L16.5405 22.8541Z" fill="#FFA0B9"/>
<path d="M65.3869 18.2751C66.8669 16.8445 66.2432 14.3482 64.2643 13.7818L54.9508 11.116C52.9719 10.5496 51.1219 12.3378 51.6208 14.3348L53.9689 23.7334C54.4679 25.7304 56.9415 26.4385 58.4215 25.0079L65.3869 18.2751Z" fill="#FFA0B9"/>
<path d="M33.4426 40.0167C34.8981 41.4722 37.3834 40.8063 37.9161 38.818L40.4234 29.4607C40.9562 27.4724 39.1368 25.653 37.1486 26.1858L27.7912 28.6931C25.8029 29.2258 25.137 31.7112 26.5925 33.1667L33.4426 40.0167Z" fill="#FFA0B9"/>
<path d="M29.2098 67.44C29.2098 69.4983 31.438 70.7848 33.2207 69.7556L41.6102 64.9119C43.3929 63.8827 43.3929 61.3097 41.6103 60.2805L33.2207 55.4368C31.438 54.4076 29.2098 55.6941 29.2098 57.7525V67.44Z" fill="#FFA0B9"/>
<path d="M82.6883 47.6453C83.221 45.657 85.7064 44.9911 87.1619 46.4466L94.0119 53.2966C95.4674 54.7521 94.8015 57.2375 92.8132 57.7702L83.4559 60.2775C81.4676 60.8103 79.6482 58.9909 80.181 57.0026L82.6883 47.6453Z" fill="#FFA0B9"/>
<path d="M21.0984 77.2562C22.881 78.2854 22.881 80.8584 21.0984 81.8876L12.7088 86.7313C10.9262 87.7605 8.69793 86.474 8.69793 84.4156V74.7282C8.69793 72.6698 10.9262 71.3833 12.7088 72.4125L21.0984 77.2562Z" fill="#FFA0B9"/>
<path d="M68.7236 72.9016C70.7817 72.9365 72.1058 70.7304 71.107 68.9306L66.4064 60.46C65.4076 58.6602 62.835 58.6165 61.7757 60.3814L56.7902 68.6875C55.7309 70.4524 56.9794 72.7022 59.0375 72.7371L68.7236 72.9016Z" fill="#FFA0B9"/>
<path d="M51.4789 38.9784C50.98 36.9814 52.83 35.1932 54.8089 35.7596L64.1224 38.4254C66.1013 38.9918 66.725 41.4881 65.245 42.9187L58.2796 49.6515C56.7996 51.0821 54.326 50.3741 53.827 48.3771L51.4789 38.9784Z" fill="#FFA0B9"/>
<path d="M7.27863 47.609C5.4788 48.6078 5.43512 51.1804 7.20001 52.2398L15.5062 57.2252C17.2711 58.2845 19.5209 57.036 19.5558 54.9779L19.7202 45.2919C19.7552 43.2338 17.5491 41.9096 15.7492 42.9084L7.27863 47.609Z" fill="#FFA0B9"/>
<path d="M42.4239 81.175C43.4832 79.4101 46.0558 79.4538 47.0546 81.2536L51.7552 89.7242C52.754 91.524 51.4299 93.7301 49.3718 93.6952L39.6857 93.5308C37.6276 93.4958 36.3791 91.246 37.4385 89.4811L42.4239 81.175Z" fill="#FFA0B9"/>
<path d="M87.8618 80.4356C87.3629 78.4386 84.8893 77.7305 83.4093 79.1611L76.4439 85.8939C74.9639 87.3245 75.5876 89.8208 77.5665 90.3872L86.8799 93.053C88.8589 93.6194 90.7089 91.8312 90.2099 89.8342L87.8618 80.4356Z" fill="#FFA0B9"/>
</svg>
