<svg width="101" height="100" viewBox="0 0 101 100" fill="none" xmlns="http://www.w3.org/2000/svg">
<rect x="0.414062" width="100" height="100" rx="7.00025" fill="#5473B8"/>
<path d="M90.796 11.6034C90.2971 9.60637 87.8234 8.89834 86.3434 10.3289L79.378 17.0617C77.898 18.4923 78.5217 20.9886 80.5006 21.555L89.8141 24.2208C91.793 24.7872 93.643 22.999 93.1441 21.002L90.796 11.6034Z" fill="#019FA9"/>
<path d="M16.7129 22.8541C15.2329 24.2847 12.7592 23.5767 12.2603 21.5797L9.91219 12.1811C9.41326 10.1841 11.2633 8.39583 13.2422 8.96226L22.5557 11.628C24.5346 12.1945 25.1582 14.6907 23.6782 16.1213L16.7129 22.8541Z" fill="#019FA9"/>
<path d="M65.5593 18.2751C67.0393 16.8445 66.4156 14.3482 64.4367 13.7818L55.1232 11.116C53.1443 10.5496 51.2943 12.3378 51.7932 14.3348L54.1413 23.7334C54.6402 25.7304 57.1139 26.4385 58.5939 25.0079L65.5593 18.2751Z" fill="#019FA9"/>
<path d="M33.6149 40.0167C35.0704 41.4722 37.5557 40.8063 38.0885 38.818L40.5958 29.4607C41.1286 27.4724 39.3092 25.653 37.3209 26.1858L27.9635 28.6931C25.9753 29.2258 25.3094 31.7112 26.7649 33.1667L33.6149 40.0167Z" fill="#019FA9"/>
<path d="M29.3821 67.44C29.3821 69.4983 31.6104 70.7848 33.393 69.7556L41.7826 64.9119C43.5652 63.8827 43.5652 61.3097 41.7826 60.2805L33.393 55.4368C31.6104 54.4076 29.3821 55.6941 29.3821 57.7525V67.44Z" fill="#019FA9"/>
<path d="M82.8607 47.6453C83.3934 45.657 85.8787 44.9911 87.3342 46.4466L94.1843 53.2966C95.6398 54.7521 94.9739 57.2375 92.9856 57.7702L83.6282 60.2775C81.64 60.8103 79.8206 58.9909 80.3534 57.0026L82.8607 47.6453Z" fill="#019FA9"/>
<path d="M21.2708 77.2562C23.0534 78.2854 23.0534 80.8584 21.2708 81.8876L12.8812 86.7313C11.0986 87.7605 8.87029 86.474 8.87029 84.4156V74.7282C8.87029 72.6698 11.0986 71.3833 12.8812 72.4125L21.2708 77.2562Z" fill="#019FA9"/>
<path d="M68.8959 72.9016C70.954 72.9365 72.2782 70.7304 71.2794 68.9306L66.5788 60.46C65.58 58.6602 63.0073 58.6165 61.948 60.3814L56.9626 68.6875C55.9033 70.4524 57.1518 72.7022 59.2099 72.7371L68.8959 72.9016Z" fill="#019FA9"/>
<path d="M51.6513 38.9784C51.1524 36.9814 53.0024 35.1932 54.9813 35.7596L64.2948 38.4254C66.2737 38.9918 66.8973 41.4881 65.4173 42.9187L58.452 49.6515C56.972 51.0821 54.4983 50.3741 53.9994 48.3771L51.6513 38.9784Z" fill="#019FA9"/>
<path d="M7.45099 47.609C5.65116 48.6078 5.60748 51.1804 7.37237 52.2398L15.6785 57.2252C17.4434 58.2845 19.6932 57.036 19.7282 54.9779L19.8926 45.2919C19.9275 43.2338 17.7214 41.9096 15.9216 42.9084L7.45099 47.609Z" fill="#019FA9"/>
<path d="M42.5963 81.175C43.6556 79.4101 46.2282 79.4538 47.227 81.2536L51.9276 89.7242C52.9264 91.524 51.6023 93.7301 49.5442 93.6952L39.8581 93.5308C37.8 93.4958 36.5515 91.246 37.6108 89.4811L42.5963 81.175Z" fill="#019FA9"/>
<path d="M88.0342 80.4356C87.5353 78.4386 85.0616 77.7305 83.5816 79.1611L76.6163 85.8939C75.1363 87.3245 75.7599 89.8208 77.7388 90.3872L87.0523 93.053C89.0312 93.6194 90.8812 91.8312 90.3823 89.8342L88.0342 80.4356Z" fill="#019FA9"/>
</svg>
