<svg width="101" height="101" viewBox="0 0 101 101" fill="none" xmlns="http://www.w3.org/2000/svg">
<rect x="0.758301" y="0.930298" width="100" height="100" rx="7.00025" fill="#52C6CA"/>
<path d="M38.262 18.7512C38.262 23.9724 31.4239 27.599 26.1187 27.599C20.8135 27.599 15.1055 21.9726 15.1055 16.7514C15.1055 11.5302 20.8135 8.69141 26.1187 8.69141C31.4239 8.69141 38.262 13.53 38.262 18.7512Z" fill="#CEECB7"/>
<path d="M80.0459 85.6514C78.2706 82.8071 80.7626 78.5065 83.6527 76.7026C86.5427 74.8988 91.5652 76.023 93.3405 78.8672C95.1158 81.7115 92.9716 85.1988 90.0816 87.0026C87.1915 88.8065 81.8212 88.4957 80.0459 85.6514Z" fill="#CEECB7"/>
<path d="M62.1617 36.8405C62.1617 42.0617 57.3418 47.6881 52.0366 47.6881C46.7314 47.6881 41.0234 42.0617 41.0234 36.8405C41.0234 31.6193 46.7314 28.7805 52.0366 28.7805C57.3418 28.7805 62.1617 31.6193 62.1617 36.8405Z" fill="#CEECB7"/>
<path d="M97.2154 13.7773C97.2154 18.9984 92.3955 24.6249 87.0903 24.6249C81.7851 24.6249 76.0771 18.9984 76.0771 13.7773C76.0771 8.55607 81.7851 5.71729 87.0903 5.71729C92.3955 5.71729 97.2154 8.55606 97.2154 13.7773Z" fill="#CEECB7"/>
<path d="M35.8846 70.2344C32.4806 72.1996 27.0201 71.2131 25.0473 67.7961C23.0745 64.3791 24.6201 58.5849 28.0241 56.6196C31.4281 54.6543 35.4014 57.2622 37.3742 60.6792C39.347 64.0962 39.2885 68.2691 35.8846 70.2344Z" fill="#019FA9"/>
<path d="M53.7784 73.6119C51.0138 69.1827 52.1235 61.8576 56.624 59.0486C61.1244 56.2395 68.9458 57.9902 71.7104 62.4194C74.4749 66.8487 71.1358 72.2792 66.6354 75.0882C62.1349 77.8973 56.543 78.0412 53.7784 73.6119Z" fill="#CEECB7"/>
<path d="M9.02791 78.5943C10.8616 75.1497 16.0175 73.1306 19.5174 74.9939C23.0174 76.8571 24.807 82.5737 22.9733 86.0182C21.1396 89.4628 16.3769 89.3309 12.8769 87.4676C9.37697 85.6044 7.19418 82.0388 9.02791 78.5943Z" fill="#CEECB7"/>
<path d="M12.1857 48.8472C8.59763 49.4856 4.14171 46.8612 3.49305 43.2154C2.84439 39.5695 6.01307 34.959 9.60117 34.3206C13.1893 33.6822 15.838 37.2577 16.4867 40.9036C17.1354 44.5494 15.7738 48.2088 12.1857 48.8472Z" fill="#CEECB7"/>
<path d="M78.7703 36.9203C81.4761 34.4789 86.6457 34.3458 89.1264 37.0952C91.6071 39.8445 91.3603 45.4336 88.6545 47.875C85.9487 50.3164 81.8085 48.6857 79.3278 45.9363C76.8471 43.187 76.0645 39.3617 78.7703 36.9203Z" fill="#019FA9"/>
<path d="M57.978 11.8282C59.8779 10.1139 63.5078 10.0205 65.2496 11.951C66.9915 13.8814 66.8182 17.8058 64.9183 19.5201C63.0183 21.2343 60.1113 20.0893 58.3694 18.1588C56.6276 16.2284 56.0781 13.5424 57.978 11.8282Z" fill="#019FA9"/>
<path d="M71.7305 93.5018C70.3593 94.8729 67.6159 95.0847 66.2227 93.6915C64.8295 92.2983 64.8081 89.3217 66.1792 87.9505C67.5504 86.5794 69.7949 87.3329 71.1881 88.7261C72.5814 90.1193 73.1016 92.1306 71.7305 93.5018Z" fill="#339381"/>
<path d="M42.1158 81.0588C44.7072 81.8978 46.7252 85.1941 45.8726 87.8272C45.0201 90.4603 41.3104 92.3891 38.719 91.5501C36.1277 90.7111 35.636 87.4219 36.4885 84.7889C37.341 82.1558 39.5245 80.2198 42.1158 81.0588Z" fill="#CEECB7"/>
</svg>
