<svg width="101" height="100" viewBox="0 0 101 100" fill="none" xmlns="http://www.w3.org/2000/svg">
<rect x="0.260254" width="100" height="100" rx="7.00025" fill="#D59CDF"/>
<path d="M90.6422 11.6034C90.1433 9.60637 87.6696 8.89834 86.1896 10.3289L79.2242 17.0617C77.7442 18.4923 78.3679 20.9886 80.3468 21.555L89.6603 24.2208C91.6392 24.7872 93.4892 22.999 92.9903 21.002L90.6422 11.6034Z" fill="#8A3997"/>
<path d="M16.5591 22.8541C15.0791 24.2847 12.6054 23.5767 12.1065 21.5797L9.75838 12.1811C9.25945 10.1841 11.1095 8.39583 13.0884 8.96226L22.4019 11.628C24.3808 12.1945 25.0044 14.6907 23.5244 16.1213L16.5591 22.8541Z" fill="#8A3997"/>
<path d="M65.4054 18.2751C66.8854 16.8445 66.2618 14.3482 64.2829 13.7818L54.9694 11.116C52.9905 10.5496 51.1405 12.3378 51.6394 14.3348L53.9875 23.7334C54.4864 25.7304 56.9601 26.4385 58.4401 25.0079L65.4054 18.2751Z" fill="#8A3997"/>
<path d="M33.4611 40.0167C34.9166 41.4722 37.4019 40.8063 37.9347 38.818L40.442 29.4607C40.9747 27.4724 39.1554 25.653 37.1671 26.1858L27.8097 28.6931C25.8215 29.2258 25.1556 31.7112 26.6111 33.1667L33.4611 40.0167Z" fill="#8A3997"/>
<path d="M29.2283 67.44C29.2283 69.4983 31.4566 70.7848 33.2392 69.7556L41.6288 64.9119C43.4114 63.8827 43.4114 61.3097 41.6288 60.2805L33.2392 55.4368C31.4566 54.4076 29.2283 55.6941 29.2283 57.7525V67.44Z" fill="#8A3997"/>
<path d="M82.7068 47.6453C83.2396 45.657 85.7249 44.9911 87.1804 46.4466L94.0305 53.2966C95.486 54.7521 94.82 57.2375 92.8318 57.7702L83.4744 60.2775C81.4862 60.8103 79.6668 58.9909 80.1995 57.0026L82.7068 47.6453Z" fill="#8A3997"/>
<path d="M21.117 77.2562C22.8996 78.2854 22.8996 80.8584 21.117 81.8876L12.7274 86.7313C10.9448 87.7605 8.71648 86.474 8.71648 84.4156V74.7282C8.71648 72.6698 10.9448 71.3833 12.7274 72.4125L21.117 77.2562Z" fill="#8A3997"/>
<path d="M68.7421 72.9016C70.8002 72.9365 72.1244 70.7304 71.1256 68.9306L66.4249 60.46C65.4262 58.6602 62.8535 58.6165 61.7942 60.3814L56.8088 68.6875C55.7495 70.4524 56.998 72.7022 59.0561 72.7371L68.7421 72.9016Z" fill="#8A3997"/>
<path d="M51.4975 38.9784C50.9986 36.9814 52.8486 35.1932 54.8275 35.7596L64.141 38.4254C66.1199 38.9918 66.7435 41.4881 65.2635 42.9187L58.2982 49.6515C56.8182 51.0821 54.3445 50.3741 53.8456 48.3771L51.4975 38.9784Z" fill="#8A3997"/>
<path d="M7.29719 47.609C5.49735 48.6078 5.45367 51.1804 7.21856 52.2398L15.5247 57.2252C17.2896 58.2845 19.5394 57.036 19.5744 54.9779L19.7388 45.2919C19.7737 43.2338 17.5676 41.9096 15.7678 42.9084L7.29719 47.609Z" fill="#8A3997"/>
<path d="M42.4424 81.175C43.5018 79.4101 46.0744 79.4538 47.0732 81.2536L51.7738 89.7242C52.7726 91.524 51.4484 93.7301 49.3903 93.6952L39.7043 93.5308C37.6462 93.4958 36.3977 91.246 37.457 89.4811L42.4424 81.175Z" fill="#8A3997"/>
<path d="M87.8804 80.4356C87.3815 78.4386 84.9078 77.7305 83.4278 79.1611L76.4624 85.8939C74.9824 87.3245 75.6061 89.8208 77.585 90.3872L86.8985 93.053C88.8774 93.6194 90.7274 91.8312 90.2285 89.8342L87.8804 80.4356Z" fill="#8A3997"/>
</svg>
