<svg width="101" height="101" viewBox="0 0 101 101" fill="none" xmlns="http://www.w3.org/2000/svg">
<rect x="0.98584" y="0.740234" width="99.9336" height="100" rx="7.00025" fill="#B4E2D9"/>
<path d="M0.919434 15.2892C0.919434 13.6939 1.8764 12.2543 3.34732 11.6368L7.29564 9.97933C9.87122 8.89811 12.7734 8.89811 15.349 9.97934L16.5502 10.4836C19.8603 11.8732 23.6165 11.8621 26.9267 10.4725V10.4725C30.2368 9.08292 34.0194 9.08292 37.3295 10.4725V10.4725C40.6397 11.8621 44.4223 11.8621 47.7324 10.4725V10.4725C51.0425 9.08292 54.8252 9.08292 58.1353 10.4725V10.4725C61.4454 11.8621 65.2017 11.8732 68.5118 10.4836L69.713 9.97933C72.2886 8.89811 75.1908 8.89811 77.7663 9.97934L81.7147 11.6368C83.1856 12.2543 84.1425 13.6939 84.1425 15.2892V15.2892C84.1425 18.1203 81.2586 20.0374 78.6481 18.9416L76.0093 17.8338C74.5576 17.2243 72.9217 17.2243 71.47 17.8338L68.5118 19.0756C65.2017 20.4652 61.4454 20.4541 58.1353 19.0645V19.0645C54.8252 17.675 51.0425 17.675 47.7324 19.0645V19.0645C44.4223 20.4541 40.6397 20.4541 37.3295 19.0645V19.0645C34.0194 17.675 30.2368 17.675 26.9267 19.0645V19.0645C23.6165 20.4541 19.8603 20.4652 16.5502 19.0756L13.592 17.8338C12.1402 17.2243 10.5044 17.2243 9.05268 17.8338L6.41382 18.9416C3.8034 20.0374 0.919434 18.1203 0.919434 15.2892V15.2892Z" fill="#52C6CA"/>
<path d="M14.7192 33.3962C14.7192 31.7748 15.7024 30.3154 17.2051 29.7063L21.4464 27.9873C24.042 26.9352 26.9453 26.9352 29.5409 27.9873L31.2459 28.6783C34.4668 29.9838 38.0694 29.9838 41.2902 28.6783L42.0203 28.3824C45.2412 27.0769 48.8438 27.0769 52.0647 28.3824L52.7948 28.6783C56.0156 29.9838 59.6182 29.9838 62.8391 28.6783L63.5692 28.3824C66.79 27.0769 70.3926 27.0769 73.6135 28.3824L74.3436 28.6783C77.5644 29.9838 81.1671 29.9838 84.3879 28.6783L86.0929 27.9873C88.6885 26.9352 91.5918 26.9352 94.1875 27.9873L98.4288 29.7063C99.9314 30.3154 100.915 31.7748 100.915 33.3962V33.3962C100.915 36.2207 98.0553 38.147 95.4376 37.086L92.4512 35.8756C90.9691 35.2748 89.3113 35.2748 87.8291 35.8756L84.3879 37.2704C81.1671 38.5758 77.5644 38.5758 74.3436 37.2704L73.6135 36.9744C70.3926 35.6689 66.79 35.6689 63.5692 36.9744L62.8391 37.2704C59.6182 38.5758 56.0156 38.5758 52.7948 37.2704L52.0647 36.9744C48.8438 35.6689 45.2412 35.6689 42.0203 36.9744L41.2902 37.2704C38.0694 38.5758 34.4668 38.5758 31.2459 37.2704L27.8047 35.8756C26.3226 35.2748 24.6647 35.2748 23.1826 35.8756L20.1962 37.086C17.5786 38.147 14.7192 36.2207 14.7192 33.3962V33.3962Z" fill="#019FA9"/>
<path d="M0.919434 51.313C0.919434 49.7317 1.87291 48.3065 3.3345 47.703L7.35196 46.0441C9.89475 44.9941 12.7499 44.9941 15.2927 46.0441L16.6226 46.5932C19.8905 47.9426 23.5599 47.9426 26.8279 46.5932L27.0254 46.5116C30.2934 45.1622 33.9628 45.1622 37.2308 46.5116L37.4283 46.5932C40.6963 47.9426 44.3657 47.9426 47.6336 46.5932L47.8312 46.5116C51.0992 45.1622 54.7686 45.1622 58.0365 46.5116L58.2341 46.5932C61.5021 47.9426 65.1715 47.9426 68.4394 46.5932L69.7693 46.0441C72.3121 44.9941 75.1672 44.9941 77.71 46.0441L81.7275 47.703C83.1891 48.3065 84.1425 49.7317 84.1425 51.313V51.313C84.1425 54.0947 81.3173 55.9848 78.7462 54.9231L75.9913 53.7856C74.5492 53.1901 72.9301 53.1901 71.488 53.7856L68.4394 55.0444C65.1715 56.3938 61.5021 56.3938 58.2341 55.0444L58.0365 54.9628C54.7686 53.6134 51.0992 53.6134 47.8312 54.9628L47.6336 55.0444C44.3657 56.3938 40.6963 56.3938 37.4283 55.0444L37.2307 54.9628C33.9628 53.6134 30.2934 53.6134 27.0254 54.9628L26.8279 55.0444C23.5599 56.3938 19.8905 56.3938 16.6226 55.0444L13.574 53.7856C12.1319 53.1901 10.5127 53.1901 9.07068 53.7856L6.31582 54.9231C3.7447 55.9848 0.919434 54.0947 0.919434 51.313V51.313Z" fill="#52C6CA"/>
<path d="M14.7192 69.4186C14.7192 67.812 15.6984 66.3676 17.1908 65.7726L21.5036 64.0532C24.0656 63.0317 26.9217 63.0317 29.4838 64.0532L31.3169 64.784C34.496 66.0514 38.0401 66.0514 41.2193 64.784L42.0913 64.4363C45.2704 63.1689 48.8146 63.1689 51.9937 64.4363L52.8657 64.784C56.0448 66.0514 59.589 66.0514 62.7681 64.784L63.6401 64.4363C66.8193 63.1689 70.3634 63.1689 73.5425 64.4363L74.4146 64.784C77.5937 66.0514 81.1378 66.0514 84.317 64.784L86.1501 64.0532C88.7121 63.0317 91.5683 63.0317 94.1303 64.0532L98.4431 65.7726C99.9355 66.3676 100.915 67.812 100.915 69.4186V69.4186C100.915 72.1936 98.1135 74.0924 95.5358 73.0647L92.4325 71.8275C90.9606 71.2407 89.3197 71.2407 87.8479 71.8275L84.317 73.2352C81.1378 74.5026 77.5937 74.5026 74.4146 73.2352L73.5425 72.8875C70.3634 71.6201 66.8193 71.6201 63.6401 72.8875L62.7681 73.2352C59.589 74.5026 56.0448 74.5026 52.8657 73.2352L51.9937 72.8875C48.8146 71.6201 45.2704 71.6201 42.0913 72.8875L41.2193 73.2352C38.0401 74.5026 34.496 74.5026 31.3169 73.2352L27.7859 71.8275C26.3141 71.2407 24.6732 71.2407 23.2014 71.8275L20.098 73.0647C17.5203 74.0924 14.7192 72.1936 14.7192 69.4186V69.4186Z" fill="#019FA9"/>
<path d="M0.919434 87.3081C0.919434 85.7128 1.8764 84.2732 3.34732 83.6558L7.29564 81.9983C9.87122 80.917 12.7734 80.917 15.349 81.9983L16.5502 82.5025C19.8603 83.8921 23.6165 83.881 26.9267 82.4914V82.4914C30.2368 81.1018 34.0194 81.1018 37.3295 82.4914V82.4914C40.6397 83.881 44.4223 83.881 47.7324 82.4914V82.4914C51.0425 81.1018 54.8252 81.1018 58.1353 82.4914V82.4914C61.4454 83.881 65.2017 83.8921 68.5118 82.5025L69.713 81.9983C72.2886 80.917 75.1908 80.917 77.7663 81.9983L81.7147 83.6558C83.1856 84.2732 84.1425 85.7128 84.1425 87.3081V87.3081C84.1425 90.1392 81.2586 92.0563 78.6481 90.9605L76.0093 89.8527C74.5576 89.2433 72.9217 89.2433 71.47 89.8527L68.5118 91.0945C65.2017 92.4841 61.4454 92.473 58.1353 91.0835V91.0835C54.8252 89.6939 51.0425 89.6939 47.7324 91.0835V91.0835C44.4223 92.473 40.6397 92.473 37.3295 91.0835V91.0835C34.0194 89.6939 30.2368 89.6939 26.9267 91.0835V91.0835C23.6165 92.473 19.8603 92.4841 16.5502 91.0945L13.592 89.8527C12.1402 89.2433 10.5044 89.2433 9.05268 89.8527L6.41382 90.9605C3.8034 92.0563 0.919434 90.1392 0.919434 87.3081V87.3081Z" fill="#52C6CA"/>
</svg>
