<svg width="101" height="101" viewBox="0 0 101 101" fill="none" xmlns="http://www.w3.org/2000/svg">
<rect x="0.391602" y="0.740234" width="99.9296" height="100" rx="7.00025" fill="#FFEFB6"/>
<path d="M0.400391 15.3848C0.400391 13.7389 1.4086 12.261 2.94106 11.6605L7.47978 9.88215C10.0938 8.85792 12.998 8.85792 15.612 9.88215L17.8139 10.7449C20.9495 11.9735 24.4333 11.9735 27.5689 10.7449L28.9594 10.2001C32.095 8.97146 35.5788 8.97146 38.7145 10.2001L40.1049 10.7449C43.2405 11.9735 46.7243 11.9735 49.86 10.7449L51.2504 10.2001C54.3861 8.97146 57.8699 8.97146 61.0055 10.2001L62.3959 10.7449C65.5316 11.9735 69.0154 11.9735 72.151 10.7449L74.3529 9.88215C76.9669 8.85792 79.8711 8.85792 82.4851 9.88215L87.0238 11.6605C88.5563 12.261 89.5645 13.7389 89.5645 15.3848V15.3848C89.5645 18.2025 86.7288 20.137 84.1053 19.109L80.7698 17.8021C79.2585 17.2099 77.5794 17.2099 76.0681 17.8021L72.151 19.3369C69.0154 20.5656 65.5316 20.5656 62.3959 19.3369L61.0055 18.7921C57.8699 17.5635 54.3861 17.5635 51.2504 18.7921L49.86 19.3369C46.7243 20.5656 43.2405 20.5656 40.1049 19.3369L38.7145 18.7921C35.5788 17.5635 32.095 17.5635 28.9594 18.7921L27.5689 19.3369C24.4333 20.5656 20.9495 20.5656 17.8139 19.3369L13.8967 17.8021C12.3855 17.2099 10.7064 17.2099 9.19506 17.8021L5.85958 19.109C3.23604 20.137 0.400391 18.2025 0.400391 15.3848V15.3848Z" fill="#FFBF7A"/>
<path d="M13.1382 33.413C13.1382 31.7827 14.1304 30.3166 15.6439 29.7106L19.9907 27.9701C22.593 26.9281 25.4967 26.9281 28.0991 27.9701L29.9818 28.724C33.1719 30.0013 36.7312 30.0013 39.9213 28.724L40.8885 28.3367C44.0785 27.0594 47.6379 27.0594 50.8279 28.3367L51.7952 28.724C54.9852 30.0013 58.5446 30.0013 61.7346 28.724L62.7019 28.3367C65.8919 27.0594 69.4513 27.0594 72.6413 28.3367L73.6086 28.724C76.7986 30.0013 80.3579 30.0013 83.548 28.724L85.4308 27.9701C88.0331 26.9281 90.9368 26.9281 93.5391 27.9701L97.8859 29.7106C99.3994 30.3166 100.392 31.7827 100.392 33.413V33.413C100.392 36.2351 97.5408 38.1645 94.921 37.1155L91.8104 35.8699C90.3177 35.2723 88.6522 35.2723 87.1595 35.8699L83.548 37.316C80.3579 38.5934 76.7986 38.5934 73.6086 37.316L72.6413 36.9287C69.4513 35.6514 65.8919 35.6514 62.7019 36.9287L61.7346 37.316C58.5446 38.5934 54.9852 38.5934 51.7952 37.316L50.8279 36.9287C47.6379 35.6514 44.0785 35.6514 40.8885 36.9287L39.9213 37.316C36.7312 38.5934 33.1719 38.5934 29.9818 37.316L26.3703 35.8699C24.8776 35.2723 23.2121 35.2723 21.7195 35.8699L18.6089 37.1155C15.989 38.1645 13.1382 36.2351 13.1382 33.413V33.413Z" fill="#F2C937"/>
<path d="M0.400391 51.4062C0.400391 49.7757 1.40395 48.3134 2.92534 47.7271L7.53776 45.9494C10.1174 44.9552 12.9744 44.9552 15.554 45.9494L17.8834 46.8472C20.9778 48.0398 24.405 48.0398 27.4994 46.8472L29.0289 46.2577C32.1233 45.0651 35.5505 45.0651 38.6449 46.2577L40.1745 46.8472C43.2688 48.0398 46.696 48.0398 49.7904 46.8472L51.32 46.2577C54.4144 45.0651 57.8415 45.0651 60.9359 46.2577L62.4655 46.8472C65.5599 48.0398 68.9871 48.0398 72.0814 46.8472L74.4108 45.9494C76.9904 44.9552 79.8475 44.9552 82.4271 45.9494L87.0395 47.7271C88.5609 48.3134 89.5645 49.7757 89.5645 51.4062V51.4062C89.5645 54.1744 86.7867 56.0808 84.2037 55.0853L80.7503 53.7544C79.2499 53.1761 77.5881 53.1761 76.0876 53.7544L72.0815 55.2983C68.9871 56.4909 65.5599 56.4909 62.4655 55.2984L60.9359 54.7089C57.8415 53.5163 54.4144 53.5163 51.32 54.7089L49.7904 55.2983C46.696 56.4909 43.2688 56.4909 40.1745 55.2984L38.6449 54.7089C35.5505 53.5163 32.1233 53.5163 29.0289 54.7089L27.4994 55.2983C24.405 56.4909 20.9778 56.4909 17.8834 55.2984L13.8773 53.7544C12.3768 53.1761 10.715 53.1761 9.21456 53.7544L5.76123 55.0853C3.17823 56.0808 0.400391 54.1744 0.400391 51.4062V51.4062Z" fill="#FFBF7A"/>
<path d="M13.1382 69.4351C13.1382 67.8198 14.1262 66.3688 15.6291 65.7769L20.0481 64.0365C22.6166 63.0249 25.4731 63.0249 28.0416 64.0365L30.0523 64.8284C33.2008 66.0684 36.7023 66.0684 39.8508 64.8284L40.959 64.3919C44.1074 63.1519 47.609 63.1519 50.7575 64.3919L51.8656 64.8284C55.0141 66.0684 58.5157 66.0684 61.6642 64.8284L62.7723 64.3919C65.9208 63.1519 69.4224 63.1519 72.5709 64.3919L73.679 64.8284C76.8275 66.0684 80.329 66.0684 83.4775 64.8284L85.4882 64.0365C88.0567 63.0249 90.9132 63.0249 93.4817 64.0365L97.9007 65.7769C99.4037 66.3688 100.392 67.8198 100.392 69.4351V69.4351C100.392 72.2076 97.5989 74.1092 95.0192 73.0932L91.7913 71.8219C90.3091 71.2382 88.6607 71.2382 87.1786 71.8219L83.4775 73.2796C80.3291 74.5196 76.8275 74.5196 73.679 73.2796L72.5709 72.8431C69.4224 71.6031 65.9208 71.6031 62.7723 72.8431L61.6642 73.2796C58.5157 74.5196 55.0141 74.5196 51.8656 73.2796L50.7575 72.8431C47.609 71.6031 44.1074 71.6031 40.959 72.8431L39.8508 73.2796C36.7023 74.5196 33.2008 74.5196 30.0523 73.2796L26.3512 71.8219C24.8691 71.2382 23.2207 71.2382 21.7385 71.8219L18.5106 73.0932C15.9309 74.1092 13.1382 72.2076 13.1382 69.4351V69.4351Z" fill="#F2C937"/>
<path d="M0.400391 87.4037C0.400391 85.7578 1.4086 84.2799 2.94106 83.6795L7.47978 81.9011C10.0938 80.8768 12.998 80.8768 15.612 81.9011L17.8139 82.7638C20.9495 83.9924 24.4333 83.9924 27.5689 82.7638L28.9594 82.219C32.095 80.9904 35.5788 80.9904 38.7145 82.219L40.1049 82.7638C43.2405 83.9924 46.7243 83.9924 49.86 82.7638L51.2504 82.219C54.3861 80.9904 57.8699 80.9904 61.0055 82.219L62.3959 82.7638C65.5316 83.9924 69.0154 83.9924 72.151 82.7638L74.3529 81.9011C76.9669 80.8768 79.8711 80.8768 82.4851 81.9011L87.0238 83.6795C88.5563 84.2799 89.5645 85.7578 89.5645 87.4037V87.4037C89.5645 90.2215 86.7288 92.1559 84.1053 91.128L80.7698 89.821C79.2585 89.2289 77.5794 89.2289 76.0681 89.821L72.151 91.3559C69.0154 92.5845 65.5316 92.5845 62.3959 91.3559L61.0055 90.811C57.8699 89.5824 54.3861 89.5824 51.2504 90.811L49.86 91.3559C46.7243 92.5845 43.2405 92.5845 40.1049 91.3559L38.7145 90.811C35.5788 89.5824 32.095 89.5824 28.9594 90.811L27.5689 91.3559C24.4333 92.5845 20.9495 92.5845 17.8139 91.3559L13.8967 89.821C12.3855 89.2289 10.7064 89.2289 9.19506 89.821L5.85958 91.128C3.23604 92.1559 0.400391 90.2215 0.400391 87.4037V87.4037Z" fill="#FFBF7A"/>
</svg>
