<svg width="100" height="100" viewBox="0 0 100 100" fill="none" xmlns="http://www.w3.org/2000/svg">
<rect width="100" height="100" rx="7.00025" fill="#FFA0B9"/>
<path d="M5.82471 14.005C5.82471 11.9944 7.4546 10.3645 9.46518 10.3645C11.4758 10.3645 13.1056 11.9944 13.1056 14.005V23.4702C13.1056 25.4808 11.4758 27.1107 9.46518 27.1107C7.4546 27.1107 5.82471 25.4808 5.82471 23.4702V14.005Z" fill="#F86F8B"/>
<path d="M5.82471 57.6906C5.82471 55.68 7.4546 54.0501 9.46518 54.0501C11.4758 54.0501 13.1056 55.68 13.1056 57.6906V67.1558C13.1056 69.1664 11.4758 70.7963 9.46518 70.7963C7.4546 70.7963 5.82471 69.1664 5.82471 67.1558V57.6906Z" fill="#F86F8B"/>
<path d="M28.3956 13.6409C28.3956 11.8314 29.8625 10.3645 31.672 10.3645C33.4816 10.3645 34.9485 11.8314 34.9485 13.6409V23.8342C34.9485 25.6438 33.4816 27.1107 31.672 27.1107C29.8625 27.1107 28.3956 25.6438 28.3956 23.8342V13.6409Z" fill="#F86F8B"/>
<path d="M28.3956 57.3266C28.3956 55.517 29.8625 54.0501 31.672 54.0501C33.4816 54.0501 34.9485 55.517 34.9485 57.3266V67.5199C34.9485 69.3294 33.4816 70.7963 31.672 70.7963C29.8625 70.7963 28.3956 69.3294 28.3956 67.5199V57.3266Z" fill="#F86F8B"/>
<path d="M16.7461 35.8478C16.7461 33.8372 18.376 32.2073 20.3866 32.2073C22.3972 32.2073 24.0271 33.8372 24.0271 35.8478V45.313C24.0271 47.3236 22.3972 48.9535 20.3866 48.9535C18.376 48.9535 16.7461 47.3236 16.7461 45.313V35.8478Z" fill="#F86F8B"/>
<path d="M16.7461 79.5334C16.7461 77.5228 18.376 75.893 20.3866 75.893C22.3972 75.893 24.0271 77.5228 24.0271 79.5334V88.9986C24.0271 91.0092 22.3972 92.6391 20.3866 92.6391C18.376 92.6391 16.7461 91.0092 16.7461 88.9986V79.5334Z" fill="#F86F8B"/>
<path d="M50.2384 14.005C50.2384 11.9944 51.8683 10.3645 53.8789 10.3645C55.8895 10.3645 57.5194 11.9944 57.5194 14.005V23.4702C57.5194 25.4808 55.8895 27.1107 53.8789 27.1107C51.8683 27.1107 50.2384 25.4808 50.2384 23.4702V14.005Z" fill="#F86F8B"/>
<path d="M50.2384 57.6906C50.2384 55.68 51.8683 54.0501 53.8789 54.0501C55.8895 54.0501 57.5194 55.68 57.5194 57.6906V67.1558C57.5194 69.1664 55.8895 70.7963 53.8789 70.7963C51.8683 70.7963 50.2384 69.1664 50.2384 67.1558V57.6906Z" fill="#F86F8B"/>
<path d="M72.8093 14.005C72.8093 11.9944 74.4392 10.3645 76.4498 10.3645C78.4604 10.3645 80.0903 11.9944 80.0903 14.005V23.4702C80.0903 25.4808 78.4604 27.1107 76.4498 27.1107C74.4392 27.1107 72.8093 25.4808 72.8093 23.4702V14.005Z" fill="#F86F8B"/>
<path d="M72.8093 57.6906C72.8093 55.68 74.4392 54.0501 76.4498 54.0501C78.4604 54.0501 80.0903 55.68 80.0903 57.6906V67.1558C80.0903 69.1664 78.4604 70.7963 76.4498 70.7963C74.4392 70.7963 72.8093 69.1664 72.8093 67.1558V57.6906Z" fill="#F86F8B"/>
<path d="M61.1598 35.8478C61.1598 33.8372 62.7897 32.2073 64.8003 32.2073C66.8109 32.2073 68.4408 33.8372 68.4408 35.8478V45.313C68.4408 47.3236 66.8109 48.9535 64.8003 48.9535C62.7897 48.9535 61.1598 47.3236 61.1598 45.313V35.8478Z" fill="#F86F8B"/>
<path d="M85.915 35.8478C85.915 33.8372 87.5449 32.2073 89.5555 32.2073C91.5661 32.2073 93.196 33.8372 93.196 35.8478V45.313C93.196 47.3236 91.5661 48.9535 89.5555 48.9535C87.5449 48.9535 85.915 47.3236 85.915 45.313V35.8478Z" fill="#F86F8B"/>
<path d="M61.1598 79.5334C61.1598 77.5228 62.7897 75.893 64.8003 75.893C66.8109 75.893 68.4408 77.5228 68.4408 79.5334V88.9986C68.4408 91.0092 66.8109 92.6391 64.8003 92.6391C62.7897 92.6391 61.1598 91.0092 61.1598 88.9986V79.5334Z" fill="#F86F8B"/>
<path d="M85.915 79.5334C85.915 77.5228 87.5449 75.893 89.5555 75.893C91.5661 75.893 93.196 77.5228 93.196 79.5334V88.9986C93.196 91.0092 91.5661 92.6391 89.5555 92.6391C87.5449 92.6391 85.915 91.0092 85.915 88.9986V79.5334Z" fill="#F86F8B"/>
<path d="M39.317 35.4837C39.317 33.6742 40.7839 32.2073 42.5934 32.2073C44.403 32.2073 45.8699 33.6742 45.8699 35.4837V45.6771C45.8699 47.4866 44.403 48.9535 42.5934 48.9535C40.7839 48.9535 39.317 47.4866 39.317 45.6771V35.4837Z" fill="#F86F8B"/>
<path d="M39.317 79.1694C39.317 77.3599 40.7839 75.893 42.5934 75.893C44.403 75.893 45.8699 77.3599 45.8699 79.1694V89.3627C45.8699 91.1722 44.403 92.6391 42.5934 92.6391C40.7839 92.6391 39.317 91.1722 39.317 89.3627V79.1694Z" fill="#F86F8B"/>
</svg>
