<svg width="101" height="101" viewBox="0 0 101 101" fill="none" xmlns="http://www.w3.org/2000/svg">
<rect x="0.260254" y="0.930298" width="100" height="100" rx="7.00025" fill="#D59CDF"/>
<path d="M37.7634 18.7512C37.7634 23.9724 30.9253 27.599 25.6201 27.599C20.3149 27.599 14.6069 21.9726 14.6069 16.7514C14.6069 11.5302 20.3149 8.69141 25.6201 8.69141C30.9253 8.69141 37.7634 13.53 37.7634 18.7512Z" fill="#FFA0B9"/>
<path d="M79.5474 85.6514C77.7721 82.8071 80.2641 78.5065 83.1541 76.7026C86.0442 74.8988 91.0667 76.023 92.842 78.8672C94.6173 81.7115 92.4731 85.1988 89.583 87.0026C86.693 88.8065 81.3227 88.4957 79.5474 85.6514Z" fill="#FFA0B9"/>
<path d="M61.6637 36.8405C61.6637 42.0617 56.8438 47.6881 51.5386 47.6881C46.2334 47.6881 40.5254 42.0617 40.5254 36.8405C40.5254 31.6193 46.2334 28.7805 51.5386 28.7805C56.8438 28.7805 61.6637 31.6193 61.6637 36.8405Z" fill="#FFA0B9"/>
<path d="M96.7174 13.7773C96.7174 18.9984 91.8975 24.6249 86.5923 24.6249C81.2871 24.6249 75.5791 18.9984 75.5791 13.7773C75.5791 8.55607 81.2871 5.71729 86.5923 5.71729C91.8975 5.71729 96.7174 8.55606 96.7174 13.7773Z" fill="#FFA0B9"/>
<path d="M35.3865 70.2344C31.9826 72.1996 26.5221 71.2131 24.5493 67.7961C22.5765 64.3791 24.1221 58.5849 27.526 56.6196C30.93 54.6543 34.9033 57.2622 36.8761 60.6792C38.8489 64.0962 38.7905 68.2691 35.3865 70.2344Z" fill="#B458C4"/>
<path d="M53.2799 73.6119C50.5153 69.1827 51.6249 61.8576 56.1254 59.0486C60.6259 56.2395 68.4472 57.9902 71.2118 62.4194C73.9764 66.8487 70.6373 72.2792 66.1368 75.0882C61.6363 77.8973 56.0444 78.0412 53.2799 73.6119Z" fill="#FFA0B9"/>
<path d="M8.52938 78.5943C10.3631 75.1497 15.519 73.1306 19.0189 74.9939C22.5189 76.8571 24.3085 82.5737 22.4748 86.0182C20.641 89.4628 15.8783 89.3309 12.3784 87.4676C8.87843 85.6044 6.69565 82.0388 8.52938 78.5943Z" fill="#FFA0B9"/>
<path d="M11.6872 48.8472C8.09909 49.4856 3.64317 46.8612 2.99451 43.2154C2.34585 39.5695 5.51454 34.959 9.10264 34.3206C12.6907 33.6822 15.3395 37.2577 15.9882 40.9036C16.6368 44.5494 15.2753 48.2088 11.6872 48.8472Z" fill="#FFA0B9"/>
<path d="M78.2718 36.9203C80.9776 34.4789 86.1472 34.3458 88.6279 37.0952C91.1086 39.8445 90.8618 45.4336 88.156 47.875C85.4502 50.3164 81.31 48.6857 78.8293 45.9363C76.3486 43.187 75.566 39.3617 78.2718 36.9203Z" fill="#B458C4"/>
<path d="M57.4799 11.8282C59.3798 10.1139 63.0097 10.0205 64.7516 11.951C66.4934 13.8814 66.3201 17.8058 64.4202 19.5201C62.5203 21.2343 59.6132 20.0893 57.8714 18.1588C56.1295 16.2284 55.58 13.5424 57.4799 11.8282Z" fill="#B458C4"/>
<path d="M71.2324 93.5018C69.8612 94.8729 67.1179 95.0847 65.7247 93.6915C64.3314 92.2983 64.31 89.3217 65.6812 87.9505C67.0523 86.5794 69.2969 87.3329 70.6901 88.7261C72.0833 90.1193 72.6036 92.1306 71.2324 93.5018Z" fill="#B458C4"/>
<path d="M41.6178 81.0588C44.2091 81.8978 46.2271 85.1941 45.3746 87.8272C44.5221 90.4603 40.8124 92.3891 38.221 91.5501C35.6296 90.7111 35.1379 87.4219 35.9905 84.7889C36.843 82.1558 39.0264 80.2198 41.6178 81.0588Z" fill="#FFA0B9"/>
</svg>
