<svg width="101" height="101" viewBox="0 0 101 101" fill="none" xmlns="http://www.w3.org/2000/svg">
<rect x="0.740234" y="0.930298" width="100" height="100" rx="7.00025" fill="#5473B8"/>
<path d="M38.2434 18.7512C38.2434 23.9724 31.4053 27.599 26.1001 27.599C20.7949 27.599 15.0869 21.9726 15.0869 16.7514C15.0869 11.5302 20.7949 8.69141 26.1001 8.69141C31.4053 8.69141 38.2434 13.53 38.2434 18.7512Z" fill="#D59CDF"/>
<path d="M80.0274 85.6514C78.2521 82.8071 80.7441 78.5065 83.6341 76.7026C86.5241 74.8988 91.5467 76.023 93.322 78.8672C95.0973 81.7115 92.953 85.1988 90.063 87.0026C87.173 88.8065 81.8027 88.4957 80.0274 85.6514Z" fill="#D59CDF"/>
<path d="M62.1436 36.8405C62.1436 42.0617 57.3238 47.6881 52.0186 47.6881C46.7134 47.6881 41.0054 42.0617 41.0054 36.8405C41.0054 31.6193 46.7134 28.7805 52.0186 28.7805C57.3238 28.7805 62.1436 31.6193 62.1436 36.8405Z" fill="#D59CDF"/>
<path d="M97.1969 13.7773C97.1969 18.9984 92.377 24.6249 87.0718 24.6249C81.7666 24.6249 76.0586 18.9984 76.0586 13.7773C76.0586 8.55607 81.7666 5.71729 87.0718 5.71729C92.377 5.71729 97.1969 8.55606 97.1969 13.7773Z" fill="#D59CDF"/>
<path d="M35.8665 70.2344C32.4625 72.1996 27.002 71.2131 25.0293 67.7961C23.0565 64.3791 24.6021 58.5849 28.006 56.6196C31.41 54.6543 35.3833 57.2622 37.3561 60.6792C39.3289 64.0962 39.2705 68.2691 35.8665 70.2344Z" fill="#ECCDF1"/>
<path d="M53.7599 73.6119C50.9953 69.1827 52.1049 61.8576 56.6054 59.0486C61.1059 56.2395 68.9272 57.9902 71.6918 62.4194C74.4564 66.8487 71.1173 72.2792 66.6168 75.0882C62.1163 77.8973 56.5244 78.0412 53.7599 73.6119Z" fill="#D59CDF"/>
<path d="M9.00936 78.5943C10.8431 75.1497 15.9989 73.1306 19.4989 74.9939C22.9988 76.8571 24.7885 82.5737 22.9548 86.0182C21.121 89.4628 16.3583 89.3309 12.8584 87.4676C9.35841 85.6044 7.17563 82.0388 9.00936 78.5943Z" fill="#D59CDF"/>
<path d="M12.1672 48.8472C8.57907 49.4856 4.12315 46.8612 3.47449 43.2154C2.82584 39.5695 5.99452 34.959 9.58262 34.3206C13.1707 33.6822 15.8195 37.2577 16.4682 40.9036C17.1168 44.5494 15.7553 48.2088 12.1672 48.8472Z" fill="#D59CDF"/>
<path d="M78.7518 36.9203C81.4576 34.4789 86.6272 34.3458 89.1079 37.0952C91.5886 39.8445 91.3418 45.4336 88.636 47.875C85.9302 50.3164 81.7899 48.6857 79.3092 45.9363C76.8285 43.187 76.0459 39.3617 78.7518 36.9203Z" fill="#ECCDF1"/>
<path d="M57.9599 11.8282C59.8598 10.1139 63.4897 10.0205 65.2315 11.951C66.9734 13.8814 66.8001 17.8058 64.9002 19.5201C63.0003 21.2343 60.0932 20.0893 58.3514 18.1588C56.6095 16.2284 56.06 13.5424 57.9599 11.8282Z" fill="#ECCDF1"/>
<path d="M71.7119 93.5018C70.3407 94.8729 67.5974 95.0847 66.2042 93.6915C64.8109 92.2983 64.7895 89.3217 66.1607 87.9505C67.5318 86.5794 69.7764 87.3329 71.1696 88.7261C72.5628 90.1193 73.0831 92.1306 71.7119 93.5018Z" fill="#ECCDF1"/>
<path d="M42.0978 81.0588C44.6891 81.8978 46.7071 85.1941 45.8546 87.8272C45.0021 90.4603 41.2923 92.3891 38.701 91.5501C36.1096 90.7111 35.6179 87.4219 36.4704 84.7889C37.323 82.1558 39.5064 80.2198 42.0978 81.0588Z" fill="#D59CDF"/>
</svg>
