<svg width="101" height="101" viewBox="0 0 101 101" fill="none" xmlns="http://www.w3.org/2000/svg">
<rect x="0.516602" y="0.740173" width="99.9008" height="100" rx="7.00025" fill="#FFA0B9"/>
<path d="M0.41748 15.2887C0.41748 13.6937 1.3742 12.2543 2.84482 11.6367L6.79047 9.97981C9.36587 8.89831 12.2681 8.89831 14.8435 9.97981L16.04 10.4823C19.3509 11.8726 23.1052 11.8629 26.4162 10.4725V10.4725C29.7271 9.08211 33.5047 9.08211 36.8157 10.4725V10.4725C40.1266 11.8629 43.9042 11.8629 47.2151 10.4725V10.4725C50.5261 9.08211 54.3037 9.08211 57.6146 10.4725V10.4725C60.9256 11.8629 64.6799 11.8726 67.9909 10.4823L69.1874 9.97981C71.7628 8.89831 74.6649 8.89831 77.2403 9.97981L81.186 11.6367C82.6566 12.2543 83.6133 13.6937 83.6133 15.2887V15.2887C83.6133 18.1199 80.7291 20.0369 78.1188 18.9407L75.4831 17.8339C74.0317 17.2244 72.396 17.2244 70.9446 17.8339L67.9908 19.0743C64.6799 20.4647 60.9256 20.4549 57.6146 19.0645V19.0645C54.3037 17.6741 50.5261 17.6741 47.2151 19.0645V19.0645C43.9042 20.4549 40.1266 20.4549 36.8157 19.0645V19.0645C33.5047 17.6741 29.7271 17.6741 26.4162 19.0645V19.0645C23.1052 20.4549 19.3509 20.4647 16.04 19.0743L13.0862 17.8339C11.6348 17.2244 9.99915 17.2244 8.5477 17.8339L5.91203 18.9407C3.30168 20.0369 0.41748 18.1199 0.41748 15.2887V15.2887Z" fill="#FFCDD2"/>
<path d="M11.8779 33.4324C11.8779 31.7918 12.8807 30.318 14.4066 29.7156L18.8786 27.9502C21.4886 26.9199 24.3927 26.9199 27.0027 27.9502L29.0942 28.7759C32.2485 30.0211 35.7582 30.0211 38.9125 28.7759L40.1569 28.2846C43.3113 27.0394 46.8209 27.0394 49.9752 28.2846L51.2197 28.7759C54.374 30.0211 57.8836 30.0211 61.0379 28.7759L62.2824 28.2846C65.4367 27.0394 68.9463 27.0394 72.1006 28.2846L73.3451 28.7759C76.4994 30.0211 80.009 30.0211 83.1633 28.7759L85.2549 27.9502C87.8649 26.9199 90.769 26.9199 93.379 27.9502L97.851 29.7156C99.3769 30.318 100.38 31.7918 100.38 33.4324V33.4324C100.38 36.2516 97.5388 38.1844 94.9165 37.1492L91.659 35.8633C90.1541 35.2692 88.4797 35.2692 86.9748 35.8633L83.1633 37.3679C80.009 38.6131 76.4994 38.6131 73.3451 37.3679L72.1006 36.8766C68.9463 35.6314 65.4367 35.6314 62.2824 36.8766L61.0379 37.3679C57.8836 38.6131 54.374 38.6131 51.2197 37.3679L49.9752 36.8766C46.8209 35.6314 43.3113 35.6314 40.1569 36.8766L38.9125 37.3679C35.7582 38.6131 32.2485 38.6131 29.0942 37.3679L25.2827 35.8633C23.7778 35.2692 22.1034 35.2692 20.5985 35.8633L17.3411 37.1492C14.7188 38.1844 11.8779 36.2516 11.8779 33.4324V33.4324Z" fill="#F86F8B"/>
<path d="M0.41748 51.3126C0.41748 49.7315 1.37071 48.3064 2.83202 47.7029L6.84679 46.0445C9.38939 44.9943 12.2445 44.9943 14.7871 46.0445L16.1124 46.5919C19.3811 47.9421 23.0517 47.9421 26.3205 46.5919L26.5118 46.5129C29.7806 45.1627 33.4512 45.1627 36.72 46.5129L36.9113 46.5919C40.1801 47.9421 43.8507 47.9421 47.1195 46.5919L47.3108 46.5129C50.5796 45.1627 54.2502 45.1627 57.519 46.5129L57.7103 46.5919C60.9791 47.9421 64.6497 47.9421 67.9184 46.5919L69.2437 46.0445C71.7863 44.9943 74.6414 44.9943 77.184 46.0445L81.1988 47.7029C82.6601 48.3064 83.6133 49.7315 83.6133 51.3126V51.3126C83.6133 54.0943 80.7878 55.9843 78.2168 54.9223L75.4651 53.7857C74.0233 53.1902 72.4044 53.1902 70.9626 53.7857L67.9184 55.0431C64.6497 56.3933 60.9791 56.3933 57.7103 55.0431L57.519 54.9641C54.2502 53.6139 50.5796 53.6139 47.3108 54.9641L47.1195 55.0431C43.8507 56.3933 40.1801 56.3933 36.9113 55.0431L36.72 54.9641C33.4512 53.6139 29.7806 53.6139 26.5118 54.9641L26.3205 55.0431C23.0517 56.3933 19.3811 56.3933 16.1124 55.0431L13.0682 53.7857C11.6265 53.1902 10.0075 53.1902 8.5657 53.7857L5.81402 54.9223C3.24297 55.9843 0.41748 54.0943 0.41748 51.3126V51.3126Z" fill="#FFCDD2"/>
<path d="M11.8779 69.454C11.8779 67.8287 12.8761 66.3703 14.3912 65.782L18.9364 64.0172C21.5122 63.017 24.3691 63.017 26.9449 64.0172L29.1641 64.8789C32.2771 66.0876 35.7297 66.0876 38.8426 64.8789L40.2268 64.3414C43.3398 63.1327 46.7924 63.1327 49.9053 64.3414L51.2895 64.8789C54.4025 66.0876 57.8551 66.0876 60.9681 64.8789L62.3522 64.3414C65.4652 63.1327 68.9178 63.1327 72.0308 64.3414L73.4149 64.8789C76.5279 66.0876 79.9805 66.0876 83.0935 64.8789L85.3127 64.0172C87.8885 63.017 90.7454 63.017 93.3212 64.0172L97.8664 65.782C99.3814 66.3703 100.38 67.8287 100.38 69.454V69.454C100.38 72.2237 97.5967 74.1285 95.0148 73.126L91.6397 71.8155C90.1455 71.2353 88.4883 71.2353 86.9942 71.8155L83.0935 73.3301C79.9805 74.5388 76.5279 74.5388 73.4149 73.3301L72.0308 72.7926C68.9178 71.5839 65.4652 71.5839 62.3522 72.7926L60.9681 73.3301C57.8551 74.5388 54.4025 74.5388 51.2895 73.3301L49.9053 72.7926C46.7924 71.5839 43.3398 71.5839 40.2268 72.7926L38.8426 73.3301C35.7297 74.5388 32.2771 74.5388 29.1641 73.3301L25.2634 71.8155C23.7692 71.2353 22.112 71.2353 20.6179 71.8155L17.2428 73.126C14.6609 74.1285 11.8779 72.2237 11.8779 69.454V69.454Z" fill="#F86F8B"/>
<path d="M0.41748 87.3076C0.41748 85.7126 1.3742 84.2732 2.84482 83.6556L6.79047 81.9987C9.36587 80.9172 12.2681 80.9172 14.8435 81.9987L16.04 82.5012C19.3509 83.8916 23.1052 83.8818 26.4162 82.4914V82.4914C29.7271 81.101 33.5047 81.101 36.8157 82.4914V82.4914C40.1266 83.8818 43.9042 83.8818 47.2151 82.4914V82.4914C50.5261 81.101 54.3037 81.101 57.6146 82.4914V82.4914C60.9256 83.8818 64.6799 83.8916 67.9909 82.5012L69.1874 81.9987C71.7628 80.9172 74.6649 80.9172 77.2403 81.9987L81.186 83.6556C82.6566 84.2732 83.6133 85.7126 83.6133 87.3076V87.3076C83.6133 90.1388 80.7291 92.0558 78.1188 90.9597L75.4831 89.8528C74.0317 89.2433 72.396 89.2433 70.9446 89.8528L67.9908 91.0932C64.6799 92.4836 60.9256 92.4738 57.6146 91.0835V91.0835C54.3037 89.6931 50.5261 89.6931 47.2151 91.0835V91.0835C43.9042 92.4738 40.1266 92.4738 36.8157 91.0835V91.0835C33.5047 89.6931 29.7271 89.6931 26.4162 91.0835V91.0835C23.1052 92.4738 19.3509 92.4836 16.04 91.0932L13.0862 89.8528C11.6348 89.2433 9.99915 89.2433 8.5477 89.8528L5.91203 90.9597C3.30168 92.0558 0.41748 90.1388 0.41748 87.3076V87.3076Z" fill="#FFCDD2"/>
</svg>
